<?xml version="1.0" encoding="UTF-8" standalone="no"?>
<!-- Created with Inkscape (http://www.inkscape.org/) -->

<svg
   width="33.866665mm"
   height="33.866665mm"
   viewBox="0 0 33.866665 33.866665"
   version="1.1"
   id="svg1"
   inkscape:version="1.3.2 (091e20ef0f, 2023-11-25, custom)"
   sodipodi:docname="rv-icon.svg"
   xmlns:inkscape="http://www.inkscape.org/namespaces/inkscape"
   xmlns:sodipodi="http://sodipodi.sourceforge.net/DTD/sodipodi-0.dtd"
   xmlns="http://www.w3.org/2000/svg"
   xmlns:svg="http://www.w3.org/2000/svg">
  <sodipodi:namedview
     id="namedview1"
     pagecolor="#cccccc"
     bordercolor="#000000"
     borderopacity="0.24705882"
     inkscape:showpageshadow="2"
     inkscape:pageopacity="0.0"
     inkscape:pagecheckerboard="true"
     inkscape:deskcolor="#d9d9d9"
     inkscape:document-units="mm"
     inkscape:zoom="1.2633073"
     inkscape:cx="197.10169"
     inkscape:cy="132.98427"
     inkscape:window-width="1533"
     inkscape:window-height="1382"
     inkscape:window-x="0"
     inkscape:window-y="0"
     inkscape:window-maximized="1"
     inkscape:current-layer="layer1">
    <inkscape:page
       x="0"
       y="0"
       width="33.866665"
       height="33.866665"
       id="page1"
       margin="0"
       bleed="0" />
  </sodipodi:namedview>
  <defs
     id="defs1" />
  <g
     inkscape:label="Layer 1"
     inkscape:groupmode="layer"
     id="layer1"
     transform="translate(255.85208,80.962501)">
    <circle
       style="fill:#f9f9f9;stroke:none;stroke-width:2.5;stroke-linecap:round;stroke-linejoin:round;stroke-dasharray:none"
       id="path160"
       cx="-238.91875"
       cy="-64.029167"
       r="16.933332"
       inkscape:export-filename="rv-icon.png"
       inkscape:export-xdpi="96"
       inkscape:export-ydpi="96" />
    <path
       style="fill:#000000;stroke:none;stroke-width:2.5;stroke-linecap:round;stroke-linejoin:round;stroke-dasharray:none"
       d="m -238.06089,-69.394577 h 3.02073 a 0.83176628,0.83176628 0 0 1 0.83178,0.831768 v 1.911465 a 0.83176628,0.83176628 0 0 0 0.83178,0.831768 0.78238344,0.78238344 0 0 1 0.72964,0.831768 v 1.911461 a 0.83176836,0.83176836 0 0 0 0.83179,0.831768 0.78238049,0.78238049 0 0 0 0.72965,-0.831768 v -1.911461 a 0.8317672,0.8317672 0 0 1 0.83178,-0.831768 0.7823816,0.7823816 0 0 0 0.72965,-0.831768 v -1.911465 a 0.83176628,0.83176628 0 0 1 0.83177,-0.831768 h 3.02075 a 0.83176628,0.83176628 0 0 1 0.83178,0.831768 v 1.911465 a 0.83176628,0.83176628 0 0 1 -0.83178,0.831768 0.78238525,0.78238525 0 0 0 -0.72963,0.831768 v 1.911461 a 0.83176628,0.83176628 0 0 1 -0.83178,0.831768 0.78238344,0.78238344 0 0 0 -0.72969,0.831767 v 1.911466 a 0.83176628,0.83176628 0 0 1 -0.83174,0.831768 h -6.14362 a 0.8317672,0.8317672 0 0 1 -0.83178,-0.831768 v -1.911466 a 0.8317672,0.8317672 0 0 0 -0.83178,-0.831767 0.78238258,0.78238258 0 0 1 -0.72965,-0.831768 v -1.911461 a 0.83176537,0.83176537 0 0 0 -0.83178,-0.831768 0.78238344,0.78238344 0 0 1 -0.72965,-0.831768 v -1.911465 a 0.83176628,0.83176628 0 0 1 0.83178,-0.831768 z"
       id="path154" />
    <path
       id="path156"
       style="fill:#000000;stroke:none;stroke-width:2.5;stroke-linecap:round;stroke-linejoin:round;stroke-dasharray:none"
       d="m -252.16589,-69.394577 a 0.83176628,0.83176628 0 0 0 -0.83178,0.831768 v 9.061499 a 0.83176628,0.83176628 0 0 0 0.83178,0.831767 h 1.45946 a 0.83176628,0.83176628 0 0 0 0.83177,-0.831767 v -1.911478 a 0.83176628,0.83176628 0 0 1 0.83174,-0.831768 h 1.45926 a 0.83176628,0.83176628 0 0 1 0.83178,0.831768 v 1.911478 a 0.83176628,0.83176628 0 0 0 0.83174,0.831767 h 1.45946 a 0.83176628,0.83176628 0 0 0 0.83178,-0.831767 v -1.911478 a 0.83176628,0.83176628 0 0 1 0.83174,-0.831768 h 1.45925 a 0.83176628,0.83176628 0 0 0 0.83179,-0.831764 v -5.486489 a 0.83176628,0.83176628 0 0 0 -0.83179,-0.831768 z m 7.58418,2.867118 c 0.23165,3.02e-4 0.45474,0.03371 0.64108,0.189257 0.44538,0.36398 0.1824,1.172084 -0.38986,1.206428 -1.31076,0.02707 -2.62576,0.0039 -3.93814,0.01159 -0.4541,-0.042 -1.03317,0.143717 -1.36522,-0.265005 -0.36128,-0.406757 -0.0424,-1.118467 0.49938,-1.129667 v 2.01e-4 c 1.28635,-0.0091 2.57365,-0.0012 3.86033,-0.0041 0.22056,0.02358 0.46082,-0.009 0.69243,-0.0087 z" />
  </g>
</svg>
