<?xml version="1.0" encoding="UTF-8" standalone="no"?>
<!-- Created with Inkscape (http://www.inkscape.org/) -->

<svg
   width="74.155701mm"
   height="29.792906mm"
   viewBox="0 0 74.1557 29.792906"
   version="1.1"
   id="svg1"
   inkscape:version="1.3.2 (091e20ef0f, 2023-11-25, custom)"
   sodipodi:docname="rv-logo.svg"
   xmlns:inkscape="http://www.inkscape.org/namespaces/inkscape"
   xmlns:sodipodi="http://sodipodi.sourceforge.net/DTD/sodipodi-0.dtd"
   xmlns="http://www.w3.org/2000/svg"
   xmlns:svg="http://www.w3.org/2000/svg">
  <sodipodi:namedview
     id="namedview1"
     pagecolor="#cccccc"
     bordercolor="#000000"
     borderopacity="0.24705882"
     inkscape:showpageshadow="2"
     inkscape:pageopacity="0.0"
     inkscape:pagecheckerboard="true"
     inkscape:deskcolor="#d9d9d9"
     inkscape:document-units="mm"
     inkscape:zoom="1.2633073"
     inkscape:cx="197.10169"
     inkscape:cy="132.98427"
     inkscape:window-width="1533"
     inkscape:window-height="1382"
     inkscape:window-x="0"
     inkscape:window-y="0"
     inkscape:window-maximized="1"
     inkscape:current-layer="layer1">
    <inkscape:page
       x="0"
       y="0"
       width="74.155701"
       height="29.792906"
       id="page1"
       margin="0"
       bleed="0" />
  </sodipodi:namedview>
  <defs
     id="defs1" />
  <g
     inkscape:label="Layer 1"
     inkscape:groupmode="layer"
     id="layer1"
     transform="translate(268.5521,34.924998)">
    <path
       style="fill:none;stroke:#000000;stroke-width:2.5;stroke-linecap:round;stroke-linejoin:round;stroke-dasharray:none"
       d="m -229.2913,-33.674998 h 7.6872 a 2.1166667,2.1166667 0 0 1 2.1167,2.11667 v 4.864266 a 2.1166667,2.1166667 0 0 0 2.1166,2.11667 1.9909979,1.9909979 0 0 1 1.8569,2.11667 v 4.86426 a 2.116672,2.116672 0 0 0 2.1167,2.11668 1.9909904,1.9909904 0 0 0 1.8568,-2.11667 v -4.86427 a 2.116669,2.116669 0 0 1 2.1167,-2.11667 1.9909932,1.9909932 0 0 0 1.8568,-2.11667 v -4.864266 a 2.1166667,2.1166667 0 0 1 2.1167,-2.11667 h 7.6872 a 2.1166667,2.1166667 0 0 1 2.1166,2.11667 v 4.864266 a 2.1166667,2.1166667 0 0 1 -2.1166,2.11667 1.9910025,1.9910025 0 0 0 -1.8569,2.11667 v 4.86427 a 2.1166667,2.1166667 0 0 1 -2.1167,2.11667 1.9909979,1.9909979 0 0 0 -1.8568,2.11667 v 4.86427 a 2.1166667,2.1166667 0 0 1 -2.1167,2.11667 h -15.6342 a 2.116669,2.116669 0 0 1 -2.1166,-2.11667 v -4.86427 a 2.116669,2.116669 0 0 0 -2.1167,-2.11667 1.9909957,1.9909957 0 0 1 -1.8569,-2.11667 l 1e-4,-4.86427 a 2.1166644,2.1166644 0 0 0 -2.1167,-2.11667 1.9909979,1.9909979 0 0 1 -1.8569,-2.11667 v -4.864266 a 2.1166667,2.1166667 0 0 1 2.1167,-2.11667 z"
       id="path157"
       inkscape:export-filename="rv-logo.png"
       inkscape:export-xdpi="409.22491"
       inkscape:export-ydpi="409.22491" />
    <path
       style="fill:none;stroke:#000000;stroke-width:2.5;stroke-linecap:round;stroke-linejoin:round;stroke-dasharray:none"
       d="m -267.3021,-31.558328 v 23.059566 a 2.1166667,2.1166667 0 0 0 2.1167,2.11667 h 3.714 a 2.1166667,2.1166667 0 0 0 2.1166,-2.11667 v -4.8643 a 2.1166667,2.1166667 0 0 1 2.1167,-2.11667 h 3.7135 a 2.1166667,2.1166667 0 0 1 2.1166,2.11667 v 4.8643 a 2.1166667,2.1166667 0 0 0 2.1167,2.11667 h 3.714 a 2.1166667,2.1166667 0 0 0 2.1167,-2.11667 v -4.8643 a 2.1166667,2.1166667 0 0 1 2.1166,-2.11667 h 3.7135 a 2.1166667,2.1166667 0 0 0 2.1167,-2.11667 v -13.961926 a 2.1166667,2.1166667 0 0 0 -2.1167,-2.11667 h -27.5549 a 2.1166667,2.1166667 0 0 0 -2.1167,2.11667 z"
       id="path158" />
    <path
       style="fill:#ffcc00;stroke:#000000;stroke-width:2.5;stroke-linecap:round;stroke-linejoin:round;stroke-dasharray:none"
       d="m -257.3681,-24.577322 h 11.9205"
       id="path159" />
  </g>
</svg>
